<?xml version="1.0" encoding="UTF-8"?>
<svg width="54px" height="33px" viewBox="0 0 54 33" version="1.1" xmlns="http://www.w3.org/2000/svg" xmlns:xlink="http://www.w3.org/1999/xlink">
    <!-- Generator: sketchtool 41.1 (35376) - http://www.bohemiancoding.com/sketch -->
    <title>B767B50B-D4D3-4DEC-8F98-266B2A22E3E4</title>
    <desc>Created with sketchtool.</desc>
    <defs>
        <rect id="path-1" x="0" y="0" width="54" height="33" rx="4"></rect>
        <mask id="mask-2" maskContentUnits="userSpaceOnUse" maskUnits="objectBoundingBox" x="0" y="0" width="54" height="33" fill="white">
            <use xlink:href="#path-1"></use>
        </mask>
    </defs>
    <g id="Symbols" stroke="none" stroke-width="1" fill="none" fill-rule="evenodd">
        <g id="footer" transform="translate(-933.000000, -64.000000)">
            <g id="support-connect-appdownload">
                <g>
                    <g id="Group-24">
                        <g id="ic_visa" transform="translate(933.000000, 64.000000)">
                            <use id="Rectangle-14-Copy-2" stroke="#E4E4E4" mask="url(#mask-2)" stroke-width="2" fill="#F3F3F3" xlink:href="#path-1"></use>
                            <g id="Visa_2014_logo_detail" transform="translate(7.000000, 10.000000)">
                                <g id="#243881ff">
                                    <path d="M24.2231811,0.208695652 C25.2116407,-0.0163975155 26.2458605,-0.0534782609 27.2537883,0.0691304348 C27.9038635,0.149440994 28.5416959,0.305776398 29.1572504,0.515031056 C28.967988,1.33434783 28.7795283,2.1536646 28.5890617,2.9726087 C27.8125439,2.64167702 26.9655795,2.44956522 26.1109885,2.42608696 C25.6814852,2.41695652 25.2419468,2.44173913 24.8359257,2.58223602 C24.5912694,2.6673913 24.3572504,2.80006211 24.1994982,2.99720497 C24.0670346,3.16080745 23.9997993,3.37658385 24.0507777,3.5789441 C24.0955344,3.76136646 24.2257903,3.91397516 24.3723031,4.03770186 C24.6330156,4.25329193 24.940291,4.41204969 25.2447566,4.56763975 C25.9287506,4.9084472 26.6360261,5.2226087 27.2491721,5.67055901 C27.7728048,6.04583851 28.218565,6.54186335 28.418866,7.13496894 C28.5824385,7.60378882 28.5898645,8.10801242 28.5137983,8.59229814 C28.4228801,9.16975155 28.1768189,9.72670807 27.79428,10.1904969 C27.3449072,10.7418634 26.721726,11.1551553 26.0453588,11.4346584 C25.263422,11.7590683 24.4110386,11.9154037 23.5596588,11.9675776 C22.5996989,12.0225466 21.633718,11.939441 20.6928249,11.758882 C20.2328149,11.6649689 19.7744104,11.5509317 19.3443051,11.3698137 C19.5395886,10.5236646 19.7338685,9.67751553 19.9287506,8.83136646 C20.3243352,9.0031677 20.7227296,9.17273292 21.1403914,9.29329193 C21.6190667,9.43434783 22.1168088,9.51745342 22.6177622,9.54801242 C23.0759659,9.57279503 23.5427998,9.58062112 23.9915705,9.4773913 C24.3452082,9.39726708 24.70286,9.25900621 24.9471149,8.99906832 C25.1829403,8.75254658 25.2491721,8.37614907 25.0998495,8.07559006 C24.9788259,7.84062112 24.7566483,7.66937888 24.5318615,7.52236025 C24.1912694,7.30397516 23.8199699,7.13198758 23.4498746,6.96186335 C22.7173106,6.62459627 21.9969895,6.22565217 21.4462619,5.65509317 C21.0380331,5.23509317 20.7498244,4.70385093 20.6920221,4.13645963 C20.6332163,3.53403727 20.7530356,2.9163354 21.0386352,2.37223602 C21.252584,1.96173913 21.560863,1.5963354 21.9261415,1.29223602 C22.5728048,0.751677019 23.3844456,0.404720497 24.2231811,0.208695652 Z" id="Shape" fill="#243881"></path>
                                    <path d="M0.0768690416,0.212608696 C1.89101856,0.211304348 3.70496739,0.212236025 5.51891621,0.211863354 C5.67506272,0.211118012 5.83201204,0.224161491 5.98253889,0.264223602 C6.30326141,0.344906832 6.59066734,0.531801242 6.7835424,0.783167702 C6.92804817,0.969130435 7.02197692,1.18677019 7.06713497,1.41167702 C7.3635725,2.87385093 7.65980933,4.33602484 7.95624686,5.79819876 C8.11319619,6.56496894 8.26392373,7.33304348 8.42528851,8.09906832 C9.54721525,5.47099379 10.667135,2.84198758 11.7856498,0.212608696 C12.9168088,0.210372671 14.0479679,0.211677019 15.1791269,0.211863354 C13.4340191,4.07645963 11.689714,7.94161491 9.94380331,11.8060248 C8.80722529,11.8060248 7.67064727,11.8034161 6.53406924,11.8073292 C5.68268941,8.76689441 4.83953838,5.72459627 3.9915705,2.68360248 C3.91530356,2.42236025 3.85589563,2.14826087 3.69091821,1.92 C3.51991972,1.68465839 3.23793276,1.55403727 2.97200201,1.43142857 C2.3183141,1.14242236 1.62589062,0.937267081 0.929252383,0.758757764 C0.621776217,0.681987578 0.312493728,0.611552795 0.00140491721,0.548012422 C0.0254892122,0.436024845 0.0531861515,0.324782609 0.0768690416,0.212608696 Z" id="Shape" fill="#192164"></path>
                                    <path d="M16.4046162,0.912484472 C16.4596086,0.678447205 16.5105871,0.443478261 16.5681887,0.21 C17.6439538,0.213354037 18.7199197,0.209813665 19.7956849,0.211677019 C18.9047667,4.07608696 18.0144506,7.94086957 17.1241345,11.8054658 C16.0473658,11.8063975 14.9705971,11.8054658 13.8938284,11.8058385 C14.7313598,8.1747205 15.5676869,4.54360248 16.4046162,0.912484472 Z" id="Shape" fill="#28327B"></path>
                                    <path d="M33.2439538,1.05130435 C33.4587055,0.564782609 33.9941796,0.219689441 34.5619669,0.212608696 C35.498846,0.207950311 36.435725,0.211304348 37.3724034,0.210745342 C38.2424486,4.07590062 39.1112895,7.94124224 39.9805319,11.8065839 C38.9844456,11.8073292 37.9883593,11.8063975 36.9924737,11.8067702 C36.86001,11.2300621 36.7311591,10.6524224 36.6001004,10.0753416 C35.2194681,10.0745963 33.8390366,10.075528 32.4586051,10.0745963 C32.2330156,10.651118 32.0070246,11.2276398 31.7844456,11.8050932 C30.6538886,11.8078882 29.523131,11.8063975 28.392574,11.8056522 C30.009433,8.22074534 31.6258906,4.63565217 33.2439538,1.05130435 L33.2439538,1.05130435 Z M33.3878575,7.69583851 C34.2803813,7.69658385 35.1731059,7.69602484 36.0656297,7.69602484 C35.7394882,6.24689441 35.4143502,4.79776398 35.0882087,3.34863354 C34.5184145,4.79664596 33.9546412,6.24689441 33.3878575,7.69583851 Z" id="Shape" fill="#344490"></path>
                                </g>
                            </g>
                        </g>
                    </g>
                </g>
            </g>
        </g>
    </g>
</svg>